<svg width="128" height="128" viewBox="0 0 128 128" fill="none" xmlns="http://www.w3.org/2000/svg">
<path d="M75.9283 46.3436L53.6068 68.8133L54.7365 87.7485L93.9208 82.4062L100.36 64.335L75.9283 46.3436Z" fill="#CDB6F7"/>
<path d="M98.5852 46.863L74.0352 32.7115L75.9283 46.3436L100.36 64.335L108.318 60.6848L98.5852 46.863Z" fill="#CDB6F7"/>
<path d="M75.9283 46.3436L74.0352 32.7115L54.5698 28.7411L53.6068 37.6609L75.9283 46.3436Z" fill="#F6D6FB"/>
<path d="M53.6068 37.6609L37.9494 51.3358L53.6068 68.8133L75.9283 46.3436L53.6068 37.6609Z" fill="#F6D6FB"/>
<path d="M27.8941 36.39L19.2395 47.5411L37.9494 51.3358L53.6068 37.6609L27.8941 36.39Z" fill="#FFE7FD"/>
<path d="M40.2522 31.7531L27.8941 36.39L53.6068 37.6609L54.5698 28.7411L40.2522 31.7531Z" fill="#FFE7FD"/>
<path d="M37.9494 25.3706L40.2522 31.7531L54.5698 28.7411L47.3134 21.5257L37.9494 25.3706Z" fill="#F6D6FB"/>
<path d="M56.71 23.6044L47.3134 21.5257L54.5698 28.7411L74.0352 32.7115L56.71 23.6044Z" fill="#CDB6F7"/>
<path d="M74.0352 32.7115L66.0862 21.5257L56.71 23.6044L74.0352 32.7115Z" fill="#9F8BED"/>
<path d="M51.6968 14.3571L42.93 15.6965L47.3134 21.5257L56.71 23.6044L66.0862 21.5257L51.6968 14.3571Z" fill="#CDB6F7"/>
<path d="M42.93 15.6965L37.9494 25.3706L47.3134 21.5257L42.93 15.6965Z" fill="#FFE7FD"/>
<path d="M19.2395 47.5411L14.657 60.141L19.2395 57.9531L26.1532 56.9937L31.8818 63.377L37.9494 51.3358L19.2395 47.5411Z" fill="#9F8BED"/>
<path d="M31.8818 63.377L26.1532 56.9937L10.809 70.9866L20.0767 82.4062L33.8957 82.4062L31.8818 63.377Z" fill="#F6D6FB"/>
<path d="M8.1793 79.963L16.5619 89.0745L20.0767 82.4062L10.809 70.9866L5.83046 68.1968L8.1793 79.963Z" fill="#9F8BED"/>
<path d="M16.5619 89.0745L30.1227 89.0744L33.8957 82.4062L20.0767 82.4062L16.5619 89.0745Z" fill="#726ACE"/>
<path d="M30.1227 89.0744L38.849 101.661L54.7365 87.7485L33.8957 82.4062L30.1227 89.0744Z" fill="#726ACE"/>
<path d="M37.9494 51.3358L31.8818 63.377L33.8957 82.4062L54.7365 87.7485L53.6068 68.8133L37.9494 51.3358Z" fill="#9F8BED"/>
<path d="M54.4119 109.549L71.5453 106.832L54.7365 87.7485L38.849 101.661L54.4119 109.549Z" fill="#726ACE"/>
<path d="M71.5453 106.832L97.3163 91.8797L93.9208 82.4062L54.7365 87.7485L71.5453 106.832Z" fill="#9F8BED"/>
<path d="M118.726 68.447L108.318 60.6848L100.36 64.335L114.298 69.6196L118.726 68.447Z" fill="#F6D6FB"/>
<path d="M116.498 77.5349L119.453 74.3283L118.726 68.447L114.298 69.6196L113.625 73.8411L116.498 77.5349Z" fill="#F344A2"/>
<path d="M100.36 64.335L93.9208 82.4062L113.625 73.8411L114.298 69.6196L100.36 64.335Z" fill="#F6D6FB"/>
<path d="M97.3163 91.8797L116.498 77.5349L113.625 73.8411L93.9208 82.4062L97.3163 91.8797Z" fill="#9F8BED"/>
<path d="M26.1532 56.9937L19.2395 57.9531L14.657 60.141L5.83046 68.1968L10.809 70.9866L26.1532 56.9937Z" fill="#FFE7FD"/>
<path d="M116.498 77.5349L97.3163 91.8797M116.498 77.5349L119.453 74.3283L118.726 68.447M116.498 77.5349L113.625 73.8411M97.3163 91.8797L71.5453 106.832M97.3163 91.8797L93.9208 82.4062M71.5453 106.832L54.4119 109.549L38.849 101.661M71.5453 106.832L54.7365 87.7485M38.849 101.661L30.1227 89.0744M38.849 101.661L54.7365 87.7485M14.657 60.141L19.2395 47.5411M14.657 60.141L5.83046 68.1968M14.657 60.141L19.2395 57.9531L26.1532 56.9937M19.2395 47.5411L27.8941 36.39M19.2395 47.5411L37.9494 51.3358M27.8941 36.39L40.2522 31.7531M27.8941 36.39L53.6068 37.6609M74.0352 32.7115L98.5852 46.863L108.318 60.6848M74.0352 32.7115L66.0862 21.5257M74.0352 32.7115L56.71 23.6044M74.0352 32.7115L75.9283 46.3436M74.0352 32.7115L54.5698 28.7411M108.318 60.6848L118.726 68.447M108.318 60.6848L100.36 64.335M118.726 68.447L114.298 69.6196M33.8957 82.4062L54.7365 87.7485M33.8957 82.4062L20.0767 82.4062M33.8957 82.4062L31.8818 63.377M33.8957 82.4062L30.1227 89.0744M30.1227 89.0744L16.5619 89.0745M16.5619 89.0745L8.1793 79.963L5.83046 68.1968M16.5619 89.0745L20.0767 82.4062M5.83046 68.1968L10.809 70.9866M26.1532 56.9937L31.8818 63.377M26.1532 56.9937L10.809 70.9866M31.8818 63.377L37.9494 51.3358M40.2522 31.7531L37.9494 25.3706M40.2522 31.7531L54.5698 28.7411M37.9494 25.3706L42.93 15.6965M37.9494 25.3706L47.3134 21.5257M42.93 15.6965L51.6968 14.3571L66.0862 21.5257M42.93 15.6965L47.3134 21.5257M66.0862 21.5257L56.71 23.6044M10.809 70.9866L20.0767 82.4062M47.3134 21.5257L56.71 23.6044M47.3134 21.5257L54.5698 28.7411M37.9494 51.3358L53.6068 37.6609M37.9494 51.3358L53.6068 68.8133M53.6068 37.6609L75.9283 46.3436M53.6068 37.6609L54.5698 28.7411M75.9283 46.3436L53.6068 68.8133M75.9283 46.3436L100.36 64.335M53.6068 68.8133L54.7365 87.7485M54.7365 87.7485L93.9208 82.4062M100.36 64.335L93.9208 82.4062M100.36 64.335L114.298 69.6196M93.9208 82.4062L113.625 73.8411M114.298 69.6196L113.625 73.8411" stroke="#352452" stroke-width="0.75" stroke-linecap="round"/>
<path d="M82.4996 76.7189C82.1515 77.9079 81.1682 78.8222 79.7998 79.3155C78.4318 79.8087 76.7049 79.8678 74.9497 79.3539C73.1944 78.84 71.7721 77.8589 70.8861 76.7058C69.9998 75.5524 69.665 74.2521 70.013 73.0632C70.3611 71.8742 71.3444 70.9599 72.7128 70.4666C74.0808 69.9734 75.8077 69.9143 77.5629 70.4282C79.3182 70.9421 80.7405 71.9232 81.6265 73.0763C82.5128 74.2297 82.8477 75.53 82.4996 76.7189Z" fill="#352452" stroke="#352452" stroke-width="0.75" stroke-linecap="round"/>
<ellipse cx="76.2563" cy="72.836" rx="2.36109" ry="1.83534" transform="rotate(16.3188 76.2563 72.836)" fill="#FFE7FD"/>
<path d="M99.9845 51.5968C99.5072 52.362 98.5981 52.8071 97.4458 52.8542C96.2958 52.9011 94.9449 52.5454 93.6786 51.7556C92.4124 50.9658 91.4987 49.909 91.0351 48.8556C90.5705 47.8001 90.5704 46.7878 91.0477 46.0225C91.525 45.2573 92.4342 44.8122 93.5864 44.7651C94.7364 44.7182 96.0874 45.0739 97.3536 45.8637C98.6199 46.6535 99.5335 47.7103 99.9972 48.7637C100.462 49.8192 100.462 50.8315 99.9845 51.5968Z" fill="#352452" stroke="#352452" stroke-width="0.75" stroke-linecap="round"/>
<ellipse cx="95.5162" cy="47.1024" rx="1.75281" ry="1.36251" transform="rotate(16.3188 95.5162 47.1024)" fill="#FFE7FD"/>
</svg>
