<svg width="128" height="128" viewBox="0 0 128 128" fill="none" xmlns="http://www.w3.org/2000/svg">
<path d="M74.0112 49.1814L55.2773 68.0397L56.2254 83.9316L89.1119 79.4479L94.516 64.2811L74.0112 49.1814Z" fill="#CDB6F7"/>
<path d="M93.0266 49.6173L72.4223 37.7403L74.0112 49.1814L94.516 64.2811L101.195 61.2176L93.0266 49.6173Z" fill="#CDB6F7"/>
<path d="M74.0112 49.1814L72.4223 37.7403L56.0854 34.408L55.2773 41.8942L74.0112 49.1814Z" fill="#F6D6FB"/>
<path d="M55.2773 41.8942L42.1364 53.3712L55.2773 68.0397L74.0112 49.1814L55.2773 41.8942Z" fill="#F6D6FB"/>
<path d="M33.6971 40.8276L26.4335 50.1864L42.1364 53.3712L55.2773 41.8942L33.6971 40.8276Z" fill="#FFE7FD"/>
<path d="M44.069 36.9359L33.6971 40.8276L55.2773 41.8942L56.0854 34.408L44.069 36.9359Z" fill="#FFE7FD"/>
<path d="M42.1364 31.5792L44.069 36.9359L56.0854 34.408L49.9953 28.3523L42.1364 31.5792Z" fill="#F6D6FB"/>
<path d="M57.8817 30.0969L49.9953 28.3523L56.0854 34.408L72.4223 37.7403L57.8817 30.0969Z" fill="#CDB6F7"/>
<path d="M72.4223 37.7403L65.7509 28.3523L57.8817 30.0969L72.4223 37.7403Z" fill="#9F8BED"/>
<path d="M53.6742 22.3359L46.3165 23.46L49.9953 28.3523L57.8817 30.0969L65.7509 28.3523L53.6742 22.3359Z" fill="#CDB6F7"/>
<path d="M46.3165 23.46L42.1364 31.5792L49.9953 28.3523L46.3165 23.46Z" fill="#FFE7FD"/>
<path d="M26.4335 50.1864L22.5876 60.7612L26.4335 58.925L32.2361 58.1198L37.0439 63.4772L42.1364 53.3712L26.4335 50.1864Z" fill="#9F8BED"/>
<path d="M37.0439 63.4772L32.2361 58.1198L19.358 69.8637L27.1362 79.4479L38.7342 79.4479L37.0439 63.4772Z" fill="#F6D6FB"/>
<path d="M17.151 77.3974L24.1863 85.0444L27.1362 79.4479L19.358 69.8637L15.1796 67.5223L17.151 77.3974Z" fill="#9F8BED"/>
<path d="M24.1863 85.0444L35.5675 85.0444L38.7342 79.4479L27.1362 79.4479L24.1863 85.0444Z" fill="#726ACE"/>
<path d="M35.5675 85.0444L42.8913 95.6079L56.2254 83.9316L38.7342 79.4479L35.5675 85.0444Z" fill="#726ACE"/>
<path d="M42.1364 53.3712L37.0439 63.4772L38.7342 79.4479L56.2254 83.9316L55.2773 68.0397L42.1364 53.3712Z" fill="#9F8BED"/>
<path d="M55.9529 102.228L70.3326 99.9482L56.2254 83.9316L42.8913 95.6079L55.9529 102.228Z" fill="#726ACE"/>
<path d="M70.3326 99.9482L91.9616 87.3988L89.1119 79.4479L56.2254 83.9316L70.3326 99.9482Z" fill="#9F8BED"/>
<path d="M109.93 67.7323L101.195 61.2176L94.516 64.2811L106.214 68.7164L109.93 67.7323Z" fill="#F6D6FB"/>
<path d="M108.061 75.3595L110.541 72.6683L109.93 67.7323L106.214 68.7164L105.649 72.2594L108.061 75.3595Z" fill="#F344A2"/>
<path d="M94.516 64.2811L89.1119 79.4479L105.649 72.2594L106.214 68.7164L94.516 64.2811Z" fill="#F6D6FB"/>
<path d="M91.9616 87.3988L108.061 75.3595L105.649 72.2594L89.1119 79.4479L91.9616 87.3988Z" fill="#9F8BED"/>
<path d="M32.2361 58.1198L26.4335 58.925L22.5876 60.7612L15.1796 67.5223L19.358 69.8637L32.2361 58.1198Z" fill="#FFE7FD"/>
<path d="M108.061 75.3595L91.9616 87.3988M108.061 75.3595L110.541 72.6683L109.93 67.7323M108.061 75.3595L105.649 72.2594M91.9616 87.3988L70.3326 99.9482M91.9616 87.3988L89.1119 79.4479M70.3326 99.9482L55.9529 102.228L42.8913 95.6079M70.3326 99.9482L56.2254 83.9316M42.8913 95.6079L35.5675 85.0444M42.8913 95.6079L56.2254 83.9316M22.5876 60.7612L26.4335 50.1864M22.5876 60.7612L15.1796 67.5223M22.5876 60.7612L26.4335 58.925L32.2361 58.1198M26.4335 50.1864L33.6971 40.8276M26.4335 50.1864L42.1364 53.3712M33.6971 40.8276L44.069 36.9359M33.6971 40.8276L55.2773 41.8942M72.4223 37.7403L93.0266 49.6173L101.195 61.2176M72.4223 37.7403L65.7509 28.3523M72.4223 37.7403L57.8817 30.0969M72.4223 37.7403L74.0112 49.1814M72.4223 37.7403L56.0854 34.408M101.195 61.2176L109.93 67.7323M101.195 61.2176L94.516 64.2811M109.93 67.7323L106.214 68.7164M38.7342 79.4479L56.2254 83.9316M38.7342 79.4479L27.1362 79.4479M38.7342 79.4479L37.0439 63.4772M38.7342 79.4479L35.5675 85.0444M35.5675 85.0444L24.1863 85.0444M24.1863 85.0444L17.151 77.3974L15.1796 67.5223M24.1863 85.0444L27.1362 79.4479M15.1796 67.5223L19.358 69.8637M32.2361 58.1198L37.0439 63.4772M32.2361 58.1198L19.358 69.8637M37.0439 63.4772L42.1364 53.3712M44.069 36.9359L42.1364 31.5792M44.069 36.9359L56.0854 34.408M42.1364 31.5792L46.3165 23.46M42.1364 31.5792L49.9953 28.3523M46.3165 23.46L53.6742 22.3359L65.7509 28.3523M46.3165 23.46L49.9953 28.3523M65.7509 28.3523L57.8817 30.0969M19.358 69.8637L27.1362 79.4479M49.9953 28.3523L57.8817 30.0969M49.9953 28.3523L56.0854 34.408M42.1364 53.3712L55.2773 41.8942M42.1364 53.3712L55.2773 68.0397M55.2773 41.8942L74.0112 49.1814M55.2773 41.8942L56.0854 34.408M74.0112 49.1814L55.2773 68.0397M74.0112 49.1814L94.516 64.2811M55.2773 68.0397L56.2254 83.9316M56.2254 83.9316L89.1119 79.4479M94.516 64.2811L89.1119 79.4479M94.516 64.2811L106.214 68.7164M89.1119 79.4479L105.649 72.2594M106.214 68.7164L105.649 72.2594" stroke="#352452" stroke-width="0.75" stroke-linecap="round"/>
<path d="M79.4684 74.6578C79.183 75.6327 78.3753 76.388 77.24 76.7973C76.1051 77.2064 74.669 77.2565 73.2068 76.8284C71.7446 76.4003 70.5622 75.5836 69.8271 74.627C69.0919 73.6701 68.819 72.5984 69.1045 71.6235C69.3899 70.6486 70.1976 69.8933 71.3329 69.484C72.4678 69.0748 73.9039 69.0248 75.3661 69.4529C76.8283 69.881 78.0107 70.6977 78.7458 71.6543C79.481 72.6112 79.7539 73.6829 79.4684 74.6578Z" fill="#352452" stroke="#352452" stroke-width="0.75" stroke-linecap="round"/>
<ellipse cx="74.2865" cy="71.4158" rx="1.98161" ry="1.54036" transform="rotate(16.3188 74.2865 71.4158)" fill="#FFE7FD"/>
<path d="M94.1499 53.5584C93.7629 54.1787 93.0217 54.5464 92.0679 54.5854C91.1163 54.6242 89.9943 54.3297 88.9405 53.6724C87.8867 53.0151 87.1287 52.137 86.7451 51.2654C86.3605 50.3916 86.3647 49.5642 86.7517 48.9438C87.1386 48.3235 87.8799 47.9558 88.8337 47.9168C89.7852 47.878 90.9072 48.1725 91.961 48.8298C93.0149 49.4871 93.7728 50.3652 94.1564 51.2368C94.541 52.1106 94.5368 52.938 94.1499 53.5584Z" fill="#352452" stroke="#352452" stroke-width="0.75" stroke-linecap="round"/>
<ellipse cx="90.4508" cy="49.8182" rx="1.47109" ry="1.14352" transform="rotate(16.3188 90.4508 49.8182)" fill="#FFE7FD"/>
</svg>
